<?xml version="1.0" standalone="no"?>
<!DOCTYPE svg PUBLIC "-//W3C//DTD SVG 20010904//EN"
 "http://www.w3.org/TR/2001/REC-SVG-20010904/DTD/svg10.dtd">
<svg version="1.0" xmlns="http://www.w3.org/2000/svg"
 width="2209.000000pt" height="2566.000000pt" viewBox="0 0 2209.000000 2566.000000"
 preserveAspectRatio="xMidYMid meet">

<g transform="translate(0.000000,2566.000000) scale(0.100000,-0.100000)"
fill="#000000" stroke="none">
<path d="M11555 22098 c-1171 -1402 -2136 -2559 -2143 -2571 -12 -20 112 -421
1237 -4012 688 -2194 1254 -3997 1257 -4005 4 -13 3 -13 -10 0 -8 8 -1815
2137 -4016 4730 -2201 2593 -4004 4716 -4008 4718 -4 1 50 -1567 119 -3484
102 -2785 130 -3489 141 -3499 7 -7 1715 -1123 3796 -2480 2080 -1358 3780
-2470 3778 -2472 -2 -2 -2352 784 -5222 1746 -2870 963 -5220 1749 -5222 1747
-5 -6 3538 -4367 3552 -4371 6 -2 1514 -184 3351 -405 1837 -220 3352 -403
3368 -408 26 -7 -11 -45 -865 -892 -1639 -1623 -2280 -2261 -2276 -2265 1 -2
698 63 1547 144 l1545 146 293 605 c356 733 910 1850 917 1850 4 0 4 -51 1
-112 -4 -62 -44 -1170 -91 -2463 -46 -1292 -88 -2453 -93 -2580 -5 -129 -5
-232 0 -235 26 -15 1168 -394 1173 -389 3 3 5 5293 4 11756 l-3 11750 -2130
-2549z"/>
<path d="M17688 10006 c-1703 -848 -3099 -1543 -3101 -1546 -3 -3 708 -238
1580 -523 l1586 -519 1511 752 c831 413 1514 755 1519 759 4 4 6 595 5 1313
l-3 1305 -3097 -1541z"/>
<path d="M14102 6914 l3 -1307 3095 -1038 c1702 -571 3098 -1038 3103 -1039 4
0 6 588 5 1307 l-3 1306 -3095 1039 c-1702 571 -3098 1038 -3103 1038 -4 0 -6
-588 -5 -1306z"/>
</g>
</svg>
