<?xml version="1.0" standalone="no"?>
<!DOCTYPE svg PUBLIC "-//W3C//DTD SVG 20010904//EN"
 "http://www.w3.org/TR/2001/REC-SVG-20010904/DTD/svg10.dtd">
<svg version="1.0" xmlns="http://www.w3.org/2000/svg"
 width="4047.000000pt" height="3001.000000pt" viewBox="0 0 4047.000000 3001.000000"
 preserveAspectRatio="xMidYMid meet">

<g transform="translate(0.000000,3001.000000) scale(0.100000,-0.100000)"
fill="#000000" stroke="none">
<path d="M12045 24290 c-1171 -1403 -2135 -2558 -2142 -2568 -10 -14 205 -708
1242 -4017 690 -2199 1253 -4000 1252 -4002 -2 -1 -1810 2126 -4018 4727
-2208 2601 -4015 4726 -4017 4721 -7 -20 250 -6967 258 -6976 5 -5 1716 -1124
3803 -2485 2087 -1361 3793 -2476 3792 -2478 -1 -1 -2355 787 -5231 1751
-2876 965 -5230 1753 -5232 1752 -3 -3 3497 -4317 3532 -4353 21 -22 165 -40
3386 -427 1851 -223 3370 -406 3377 -407 7 -2 -703 -712 -1578 -1578 -874
-866 -1585 -1576 -1580 -1578 10 -3 3084 287 3088 292 2 1 131 268 289 592
501 1033 918 1862 921 1834 2 -14 -12 -457 -31 -985 -20 -528 -63 -1726 -97
-2663 -38 -1032 -59 -1706 -53 -1712 9 -9 1166 -402 1169 -397 6 7 13 23507 7
23507 -4 0 -965 -1148 -2137 -2550z"/>
<path d="M19420 12820 c-1015 -506 -2407 -1200 -3093 -1542 -766 -381 -1243
-624 -1235 -629 18 -10 3141 -1032 3153 -1032 6 0 693 340 1528 756 l1517 756
0 1305 c0 1039 -3 1306 -12 1305 -7 0 -843 -414 -1858 -919z"/>
<path d="M23360 9725 l0 -3845 605 0 605 0 0 3845 0 3845 -605 0 -605 0 0
-3845z"/>
<path d="M26650 9769 l0 -3800 34 28 c18 15 290 262 605 548 l571 519 0 1083
0 1083 830 0 830 0 0 550 0 550 -830 0 -830 0 0 1070 0 1070 1045 0 1045 0 0
550 0 550 -1650 0 -1650 0 0 -3801z"/>
<path d="M32022 13511 c29 -33 253 -281 498 -550 l445 -490 983 -1 982 0 0
550 0 550 -1481 0 -1481 0 54 -59z"/>
<path d="M31720 9641 l0 -3761 610 0 610 0 0 1585 0 1585 780 0 780 0 -2 553
-3 552 -777 3 -778 2 0 958 -1 957 -601 660 c-330 363 -604 662 -609 663 -5 2
-9 -1587 -9 -3757z"/>
<path d="M14590 9117 c0 -783 4 -1308 9 -1311 8 -6 3598 -1211 5484 -1841
l727 -244 0 1307 0 1308 -3097 1038 c-1704 572 -3104 1041 -3110 1044 -10 3
-13 -261 -13 -1301z"/>
<path d="M28164 6967 c0 -8 -255 -247 -569 -531 -313 -285 -579 -527 -590
-537 -19 -19 10 -19 1463 -19 l1482 0 0 550 0 550 -894 0 c-739 0 -894 -2
-892 -13z"/>
</g>
</svg>
